<svg width="128" height="128" viewBox="0 0 128 128" xmlns="http://www.w3.org/2000/svg" role="img" aria-label="Cooking icon">
  <rect x="4" y="4" width="120" height="120" rx="28" fill="#fff8f0" stroke="#5a2f12" stroke-width="4" />
  <!-- Steam lines -->
  <path d="M46 44 C44 38 47 34 45 28" fill="none" stroke="#5a2f12" stroke-width="4" stroke-linecap="round" />
  <path d="M64 42 C62 36 65 32 63 26" fill="none" stroke="#5a2f12" stroke-width="4" stroke-linecap="round" />
  <path d="M82 44 C80 38 83 34 81 28" fill="none" stroke="#5a2f12" stroke-width="4" stroke-linecap="round" />
  <!-- Pot lid handle -->
  <rect x="56" y="46" width="16" height="9" rx="4.5" fill="#5a2f12" />
  <!-- Pot lid -->
  <rect x="22" y="53" width="84" height="11" rx="5.5" fill="#5a2f12" />
  <!-- Pot body -->
  <path d="M28 64 L34 100 C34 104 38 108 42 108 L86 108 C90 108 94 104 94 100 L100 64 Z" fill="#5a2f12" />
  <!-- Left handle -->
  <path d="M28 68 Q14 68 14 76 Q14 84 28 84" fill="none" stroke="#5a2f12" stroke-width="7" stroke-linecap="round" />
  <!-- Right handle -->
  <path d="M100 68 Q114 68 114 76 Q114 84 100 84" fill="none" stroke="#5a2f12" stroke-width="7" stroke-linecap="round" />
  <!-- Pot highlight -->
  <ellipse cx="64" cy="86" rx="24" ry="13" fill="#ffe0b8" opacity="0.35" />
</svg>
